<?xml version="1.0" encoding="utf-8"?>
<!-- Generator: Adobe Illustrator 16.0.0, SVG Export Plug-In . SVG Version: 6.00 Build 0)  -->
<!DOCTYPE svg PUBLIC "-//W3C//DTD SVG 1.1//EN" "http://www.w3.org/Graphics/SVG/1.1/DTD/svg11.dtd">
<svg version="1.1" id="Layer_1" xmlns="http://www.w3.org/2000/svg" xmlns:xlink="http://www.w3.org/1999/xlink" x="0px" y="0px"
	 width="686.012px" height="1000.006px" viewBox="0 0 686.012 1000.006" enable-background="new 0 0 686.012 1000.006"
	 xml:space="preserve">
<g>
	<defs>
		<rect id="SVGID_1_" x="-172.994" y="0.006" width="1000" height="1000"/>
	</defs>
	<clipPath id="SVGID_2_">
		<use xlink:href="#SVGID_1_"  overflow="visible"/>
	</clipPath>
	<path clip-path="url(#SVGID_2_)" fill="#F6D2A2" d="M152.953,868.098c0,0-37.348,1.76-59.076,45.352c0,0-8.943,18.997,7.798,24.428
		l15.851-17.144c0,0-25.695,13.169-7.452,28.765c14.331,12.252,33.211-8.457,49.101-22.633c22.496-20.07,26.417-27.447,19.873-39.98
		L152.953,868.098z"/>
	<path clip-path="url(#SVGID_2_)" fill="none" stroke="#000000" stroke-width="3" stroke-miterlimit="10" d="M152.953,868.098
		c0,0-37.348,1.76-59.076,45.352c0,0-8.943,18.997,7.798,24.428l15.851-17.144c0,0-25.695,13.169-7.452,28.765
		c14.331,12.252,33.211-8.457,49.101-22.633c22.496-20.07,26.417-27.447,19.873-39.98L152.953,868.098z"/>
	<path clip-path="url(#SVGID_2_)" fill="#F6D2A2" d="M526.361,868.871c0,0,37.343,1.881,58.93,45.542c0,0,8.882,19.025-7.877,24.402
		l-15.796-17.194c0,0,25.652,13.251,7.359,28.788c-14.371,12.206-33.184-8.564-49.027-22.791
		c-22.432-20.143-26.328-27.533-19.743-40.045L526.361,868.871z"/>
	<path clip-path="url(#SVGID_2_)" fill="none" stroke="#000000" stroke-width="3" stroke-miterlimit="10" d="M526.361,868.871
		c0,0,37.343,1.881,58.93,45.542c0,0,8.882,19.025-7.877,24.402l-15.796-17.194c0,0,25.652,13.251,7.359,28.788
		c-14.371,12.206-33.184-8.564-49.027-22.791c-22.432-20.143-26.328-27.533-19.743-40.045L526.361,868.871z"/>
	<path clip-path="url(#SVGID_2_)" fill="#C3E3EE" d="M134.982,114.539c0,0-27.225-23.852-62.792-8.715
		c-20.208,8.6-34.524,27.047-39.438,48.452c-5.066,22.063,1.738,54.263,43.626,63.572l24.099-52.214L134.982,114.539z"/>
	<path clip-path="url(#SVGID_2_)" fill="none" stroke="#000000" stroke-width="2" stroke-miterlimit="10" d="M134.982,114.539
		c0,0-27.225-23.852-62.792-8.715c-20.208,8.6-34.524,27.047-39.438,48.452c-5.066,22.063,1.738,54.263,43.626,63.572l24.099-52.214
		L134.982,114.539z"/>
	<path clip-path="url(#SVGID_2_)" fill="#C3E3EE" d="M537.35,113.489c0,0,27.225-23.852,62.792-8.715
		c20.208,8.6,34.522,27.047,39.438,48.452c5.066,22.063-1.737,54.263-43.626,63.572l-24.098-52.215L537.35,113.489z"/>
	<path clip-path="url(#SVGID_2_)" fill="none" stroke="#000000" stroke-width="2" stroke-miterlimit="10" d="M537.35,113.489
		c0,0,27.225-23.852,62.792-8.715c20.208,8.6,34.522,27.047,39.438,48.452c5.066,22.063-1.737,54.263-43.626,63.572l-24.098-52.215
		L537.35,113.489z"/>
	<path clip-path="url(#SVGID_2_)" fill="#E8C513" d="M613.558,119.196l-2.036-30.925l36.148,16.066c0,0-4.017-32.133-16.066-80.33
		c0,0,36.148,64.264,28.116,104.428l-34.642-20.863l1.373,16.457L613.558,119.196z"/>
	<path clip-path="url(#SVGID_2_)" fill="none" stroke="#000000" stroke-width="1.5" stroke-miterlimit="10" d="M613.558,119.196
		l-2.036-30.925l36.148,16.066c0,0-4.017-32.133-16.066-80.33c0,0,36.148,64.264,28.116,104.428l-34.642-20.863l1.373,16.457
		L613.558,119.196z"/>
	<path clip-path="url(#SVGID_2_)" fill="#E8C513" d="M59.44,120.246l2.036-30.926l-36.148,16.066c0,0,4.016-32.132,16.066-80.33
		c0,0-36.149,64.264-28.116,104.429l34.642-20.864l-1.373,16.457L59.44,120.246z"/>
	<path clip-path="url(#SVGID_2_)" fill="none" stroke="#000000" stroke-width="1.5" stroke-miterlimit="10" d="M59.44,120.246
		l2.036-30.926l-36.148,16.066c0,0,4.016-32.132,16.066-80.33c0,0-36.149,64.264-28.116,104.429l34.642-20.864l-1.373,16.457
		L59.44,120.246z"/>
	<path clip-path="url(#SVGID_2_)" fill="#E8C513" d="M548.283,130.443l-14.776-12.937c0,0,19.5-27.5,63.5-15.5
		c46.408,12.657,71,101-1,115l-6.782-14.792c0,0,57.463-9.515,29.348-61.729C590.456,88.271,548.283,130.443,548.283,130.443"/>
	<path clip-path="url(#SVGID_2_)" fill="none" stroke="#000000" stroke-width="1.5" stroke-miterlimit="10" d="M548.283,130.443
		l-14.776-12.937c0,0,19.5-27.5,63.5-15.5c46.408,12.657,71,101-1,115l-6.782-14.792c0,0,57.463-9.515,29.348-61.729
		C590.456,88.271,548.283,130.443,548.283,130.443z"/>
	<path clip-path="url(#SVGID_2_)" fill="#E8C513" d="M124.12,131.493l12.886-15.487c0,0-16-23-62-13
		c-47.005,10.219-72,100,0.5,114.5l7.673-14.242c0,0-57.463-9.516-29.348-61.73C81.947,89.32,124.12,131.493,124.12,131.493"/>
	<path clip-path="url(#SVGID_2_)" fill="none" stroke="#000000" stroke-width="1.5" stroke-miterlimit="10" d="M124.12,131.493
		l12.886-15.487c0,0-16-23-62-13c-47.005,10.219-72,100,0.5,114.5l7.673-14.242c0,0-57.463-9.516-29.348-61.73
		C81.947,89.32,124.12,131.493,124.12,131.493z"/>
	<path clip-path="url(#SVGID_2_)" d="M110.518,147.559c0,0-24.099-24.099-40.165,0c-11.14,16.709,0,32.132,16.066,36.148
		C102.484,187.724,110.518,147.559,110.518,147.559"/>
	<path clip-path="url(#SVGID_2_)" d="M563.867,150.526c0,0,24.1-24.099,40.165,0c11.14,16.709,0,32.132-16.065,36.148
		C571.9,190.691,563.867,150.526,563.867,150.526"/>
	<path clip-path="url(#SVGID_2_)" fill="#C3E3EE" d="M343.474,47.146c0,0,140.577-4.017,188.775,60.248
		c0,0,56.231,56.231,62.256,114.47c0,0,27.809,107.26,20.211,211.157c-0.083,1.144-0.119,2.291-0.101,3.438l3.988,247.302
		c0,0-4.017,136.561-84.346,196.808c-80.33,60.248-192.792,52.215-192.792,52.215s-140.577,4.017-200.825-52.215
		C85.627,829.223,69.127,779.55,66.675,694.855c-0.433-14.977,0.376-29.964,2.233-44.831c3.339-26.73,8.615-73.604,7.469-94.791
		c-8.032-148.609-10.041-234.964-10.041-234.964s-8.033-60.247,18.075-126.52C108.509,137.518,146.666,55.179,343.474,47.146"/>
	<path clip-path="url(#SVGID_2_)" fill="none" stroke="#000000" stroke-width="2" stroke-miterlimit="10" d="M343.474,47.146
		c0,0,140.577-4.017,188.775,60.248c0,0,56.231,56.231,62.256,114.47c0,0,27.809,107.26,20.211,211.157
		c-0.083,1.144-0.119,2.291-0.101,3.438l3.988,247.302c0,0-4.017,136.561-84.346,196.808
		c-80.33,60.248-192.792,52.215-192.792,52.215s-140.577,4.017-200.825-52.215C85.627,829.223,69.127,779.55,66.675,694.855
		c-0.433-14.977,0.376-29.964,2.233-44.831c3.339-26.73,8.615-73.604,7.469-94.791c-8.032-148.609-10.041-234.964-10.041-234.964
		s-8.033-60.247,18.075-126.52C108.509,137.518,146.666,55.179,343.474,47.146z"/>
	<path clip-path="url(#SVGID_2_)" fill="#0DB7F6" d="M616.596,609.456c0.073,2.979,1.515,68.006-0.09,84.051
		c-4,40-18.925,139.572-87,191c-74.735,56.459-174.588,48.401-181,48c-0.233-0.015,0.234-0.005,0,0
		c-7.614,0.161-150.713,1.916-207-51c-52.516-49.372-72.473-99.957-75-181c-0.435-13.965,0.911-41.186,3-55
		c4.492-29.701,7-45.117,7-67c0-79.894-4.564-142.998-7-181c-0.241-3.765-8.228-112.506-3-99
		c48.198,124.511,166.599,102.141,256.886,186.438c6.245,5.831,12.995,5.233,18.728-0.398
		c97.75-95.998,239.288-83.562,263.387-200.04c0.953-4.609,9.826,91.297,10,96L616.596,609.456z"/>
	<path clip-path="url(#SVGID_2_)" fill="none" stroke="#000000" stroke-width="2" stroke-miterlimit="10" d="M616.596,609.456
		c0.073,2.979,1.515,68.006-0.09,84.051c-4,40-18.925,139.572-87,191c-74.735,56.459-174.588,48.401-181,48
		c-0.233-0.015,0.234-0.005,0,0c-7.614,0.161-150.713,1.916-207-51c-52.516-49.372-72.473-99.957-75-181
		c-0.435-13.965,0.911-41.186,3-55c4.492-29.701,7-45.117,7-67c0-79.894-4.564-142.998-7-181c-0.241-3.765-8.228-112.506-3-99
		c48.198,124.511,166.599,102.141,256.886,186.438c6.245,5.831,12.995,5.233,18.728-0.398
		c97.75-95.998,239.288-83.562,263.387-200.04c0.953-4.609,9.826,91.297,10,96L616.596,609.456z"/>
	<path clip-path="url(#SVGID_2_)" fill="#0DB7F6" d="M327.409,264.037c0,0,172.969,107.103,273.181,23.518
		c2.578-2.151,5.053-8.403,4.417-10.549c-8-27,0-99-82-178c-84.024-80.95-324.703-63.363-397,25
		c-60.788,74.297-59.912,145.609-59.8,168.948c0.025,5.219,2.309,10.199,6.326,13.533
		C91.424,322.166,157.711,355.412,327.409,264.037"/>
	<path clip-path="url(#SVGID_2_)" fill="none" stroke="#000000" stroke-width="2" stroke-miterlimit="10" d="M327.409,264.037
		c0,0,172.969,107.103,273.181,23.518c2.578-2.151,5.053-8.403,4.417-10.549c-8-27,0-99-82-178c-84.024-80.95-324.703-63.363-397,25
		c-60.788,74.297-59.912,145.609-59.8,168.948c0.025,5.219,2.309,10.199,6.326,13.533
		C91.424,322.166,157.711,355.412,327.409,264.037z"/>
	<path clip-path="url(#SVGID_2_)" fill="#0093B5" d="M120.006,137.006c-58,79-51,115-55,159c-0.292,3.217,2.487,6.693,5.346,8.196
		c18.654,9.804,59.654,52.804,232.957-28.115c-68.303-10.081-82.303-4.081-104.429-24.1c-8.424-7.621-28.115-28.115-16.066-52.214
		c5.278-10.556,18.62-19.481,30.217-28.168c13.525-10.131,62.162-28.063,50.113-48.145c-21.252-35.42-88.363-20.083-106.527,9.941
		c58.954-79.65,247.241-76.412,283.389-72.395c-20.082-8.033-53.95-12-66-12c-4.017,0-14.983-1-19-1
		c-10.586,0-20.154-1.461-55.713,3.157C185.006,66.006,140.175,109.534,120.006,137.006"/>
	<path clip-path="url(#SVGID_2_)" fill="none" stroke="#000000" stroke-width="7" stroke-miterlimit="10" d="M343.474,47.146
		c0,0,129.032-3.64,188.775,60.248c0,0,55.506,55.505,62.133,113.339c0.084,0.736,0.208,1.457,0.388,2.176
		c2.82,11.295,27.106,112.197,19.946,210.112c-0.083,1.144-0.119,2.291-0.101,3.438l3.988,247.302c0,0-4.017,136.561-84.346,196.808
		c-80.33,60.248-192.792,52.215-192.792,52.215s-140.577,4.017-200.825-52.215c-55.014-51.346-70.959-101.036-73.966-185.714
		c-0.669-18.849,0.376-29.964,2.233-44.831c3.339-26.73,8.615-73.604,7.469-94.791c-8.032-148.609-10.041-234.964-10.041-234.964
		s-8.033-60.247,18.075-126.52C108.509,137.518,146.666,55.179,343.474,47.146z"/>
	<path clip-path="url(#SVGID_2_)" fill="#F6D2A2" d="M71.196,493.463c0,0-34.975-4.502-59.074,27.63c0,0-12.05,12.049,8.033,16.065
		l8.033-4.017c0,0-20.082,8.033-4.016,20.083c16.066,12.049,48.197-24.1,48.197-24.1L71.196,493.463z"/>
	<path clip-path="url(#SVGID_2_)" fill="none" stroke="#000000" stroke-width="2" stroke-miterlimit="10" d="M71.196,493.463
		c0,0-34.975-4.502-59.074,27.63c0,0-12.05,12.049,8.033,16.065l8.033-4.017c0,0-20.082,8.033-4.016,20.083
		c16.066,12.049,48.197-24.1,48.197-24.1L71.196,493.463z"/>
	<path clip-path="url(#SVGID_2_)" fill="#F6D2A2" d="M617.184,489.447c0,0,34.976-4.502,59.074,27.63c0,0,12.05,12.049-8.033,16.065
		l-8.032-4.017c0,0,20.082,8.033,4.017,20.083c-16.066,12.05-48.198-24.099-48.198-24.099L617.184,489.447z"/>
	<path clip-path="url(#SVGID_2_)" fill="none" stroke="#000000" stroke-width="2" stroke-miterlimit="10" d="M617.184,489.447
		c0,0,34.976-4.502,59.074,27.63c0,0,12.05,12.049-8.033,16.065l-8.032-4.017c0,0,20.082,8.033,4.017,20.083
		c-16.066,12.05-48.198-24.099-48.198-24.099L617.184,489.447z"/>
	<path clip-path="url(#SVGID_2_)" fill="#FFFFFF" d="M258.049,116.599c-23.058-8.885-48.815-7.571-71.162,2.975
		c-21.461,10.128-45.603,29.945-48.254,68.15c-4.869,70.149,68.28,76.313,84.346,76.313c29.241,0,84.347-20.082,84.347-76.313
		C307.326,187.724,308.72,136.123,258.049,116.599"/>
	<path clip-path="url(#SVGID_2_)" fill="none" stroke="#000000" stroke-width="3" stroke-miterlimit="10" d="M258.049,116.599
		c-23.058-8.885-48.815-7.571-71.162,2.975c-21.461,10.128-45.603,29.945-48.254,68.15c-4.869,70.149,68.28,76.313,84.346,76.313
		c29.241,0,84.347-20.082,84.347-76.313C307.326,187.724,308.72,136.123,258.049,116.599z"/>
	<path clip-path="url(#SVGID_2_)" fill="#FFFFFF" d="M462.506,107.506c-14.226-4.65-47.224-1.896-62,4
		c-11.797,4.707-46.99,26.011-46.99,66.176c0,72.297,66.271,78.322,82.338,78.322c29.24,0,82.338-18.074,82.338-74.305
		C518.192,181.699,524.051,127.627,462.506,107.506"/>
	<path clip-path="url(#SVGID_2_)" fill="none" stroke="#000000" stroke-width="3" stroke-miterlimit="10" d="M462.506,107.506
		c-14.226-4.65-47.224-1.896-62,4c-11.797,4.707-46.99,26.011-46.99,66.176c0,72.297,66.271,78.322,82.338,78.322
		c29.24,0,82.338-18.074,82.338-74.305C518.192,181.699,524.051,127.627,462.506,107.506z"/>
	<path clip-path="url(#SVGID_2_)" d="M180.74,188.716c0,15.527,10.79,28.115,24.099,28.115c13.31,0,24.099-12.588,24.099-28.115
		c0-15.528-10.789-28.116-24.099-28.116C191.53,160.6,180.74,173.188,180.74,188.716"/>
	
		<ellipse clip-path="url(#SVGID_2_)" fill="none" stroke="#000000" stroke-miterlimit="10" cx="204.839" cy="188.716" rx="24.099" ry="28.115"/>
	<path clip-path="url(#SVGID_2_)" d="M385.582,184.699c0,15.528,10.789,28.115,24.099,28.115s24.1-12.587,24.1-28.115
		s-10.79-28.116-24.1-28.116S385.582,169.171,385.582,184.699"/>
	
		<ellipse clip-path="url(#SVGID_2_)" fill="none" stroke="#000000" stroke-miterlimit="10" cx="409.681" cy="184.699" rx="24.099" ry="28.115"/>
	<path clip-path="url(#SVGID_2_)" fill="#FFFFFF" d="M220.905,200.765c0,4.437-3.147,8.033-7.029,8.033
		c-3.882,0-7.029-3.596-7.029-8.033s3.147-8.033,7.029-8.033C217.758,192.732,220.905,196.328,220.905,200.765"/>
	<path clip-path="url(#SVGID_2_)" fill="#FFFFFF" d="M425.747,192.732c0,4.437-3.146,8.033-7.029,8.033
		c-3.882,0-7.029-3.596-7.029-8.033s3.147-8.033,7.029-8.033C422.6,184.699,425.747,188.295,425.747,192.732"/>
	<path clip-path="url(#SVGID_2_)" fill="#FFFFFF" d="M294.863,320.947c0,0-1.595,45.511,18.488,45.511
		c20.083,0,20.083-20.082,20.083-20.082v-40.165h-40.166L294.863,320.947z"/>
	<path clip-path="url(#SVGID_2_)" fill="none" stroke="#000000" stroke-width="3" stroke-miterlimit="10" d="M294.863,320.947
		c0,0-1.595,45.511,18.488,45.511c20.083,0,20.083-20.082,20.083-20.082v-40.165h-40.166L294.863,320.947z"/>
	<path clip-path="url(#SVGID_2_)" fill="#FFFFFF" d="M335.028,320.947c0,0-5.611,45.511,18.488,45.511
		c20.082,0,20.082-20.082,20.082-20.082v-40.165h-40.165L335.028,320.947z"/>
	<path clip-path="url(#SVGID_2_)" fill="none" stroke="#000000" stroke-width="3" stroke-miterlimit="10" d="M335.028,320.947
		c0,0-5.611,45.511,18.488,45.511c20.082,0,20.082-20.082,20.082-20.082v-40.165h-40.165L335.028,320.947z"/>
	<path clip-path="url(#SVGID_2_)" fill="#F6D2A2" d="M345.483,258.013c-1.939,0-9.473-0.168-11.408-0.293
		c-13.237-0.854-60.889-1.046-60.889,40.458c0,48.198,44.181,8.033,60.247,8.033s36.148,16.066,52.215,12.049
		c16.065-4.016,20.082-8.033,20.082-28.115C405.73,270.832,373.598,258.013,345.483,258.013"/>
	<path clip-path="url(#SVGID_2_)" fill="none" stroke="#000000" stroke-width="3" stroke-miterlimit="10" d="M345.483,258.013
		c-1.939,0-9.473-0.168-11.408-0.293c-13.237-0.854-60.889-1.046-60.889,40.458c0,48.198,44.181,8.033,60.247,8.033
		s36.148,16.066,52.215,12.049c16.065-4.016,20.082-8.033,20.082-28.115C405.73,270.832,373.598,258.013,345.483,258.013z"/>
	<path clip-path="url(#SVGID_2_)" d="M369.582,256.004c2.009,12.049-14.386,22.091-32.132,22.091s-34.14-2.008-34.14-22.091
		c0-12.201,22.419-24.099,40.165-24.099C361.22,231.905,367.576,243.969,369.582,256.004"/>
	<path clip-path="url(#SVGID_2_)" fill="#E8C513" d="M121.124,875.888c0,0,18.541,18.541,55.621,40.789l-55.621,59.329h-14.832
		v-14.832l-25.957,14.832H6.174l3.708-22.248l63.037-25.957L121.124,875.888z"/>
	<path clip-path="url(#SVGID_2_)" fill="none" stroke="#000000" stroke-width="1.5" stroke-miterlimit="10" d="M121.124,875.888
		c0,0,18.541,18.541,55.621,40.789l-55.621,59.329h-14.832v-14.832l-25.957,14.832H6.174l3.708-22.248l63.037-25.957
		L121.124,875.888z"/>
	<path clip-path="url(#SVGID_2_)" fill="#E8C513" d="M556.172,874.006c0,0-18.601,18.48-55.753,40.608l55.429,59.509l14.832,0.048
		l0.048-14.832l25.909,14.916l74.16,0.24l-3.636-22.261l-62.953-26.16L556.172,874.006z"/>
	<path clip-path="url(#SVGID_2_)" fill="none" stroke="#000000" stroke-width="1.5" stroke-miterlimit="10" d="M556.172,874.006
		c0,0-18.601,18.48-55.753,40.608l55.429,59.509l14.832,0.048l0.048-14.832l25.909,14.916l74.16,0.24l-3.636-22.261l-62.953-26.16
		L556.172,874.006z"/>
	<path clip-path="url(#SVGID_2_)" fill="#0093B5" d="M331.425,513.06c0,0-20.083-36.148-140.578-72.297
		C70.352,404.615,82.402,356.416,82.402,356.416s-12.05,88.364,8.033,116.479c0,0-10.43-4.795-12.05-8.033
		c-4.016-8.033-4.016-16.066-4.016-16.066l-4.017-112.462c-0.094-1.79-2.02-31.989-1.346-30.328
		c7.494,18.473,34.389,76.178,95.734,98.84c86.355,31.901,138.569,60.082,166.685,84.148c0,0,32.132-23.316,78.321-53.848
		c0,0,115.521-52.586,120.26-56.14c8-6,59-25,74.54-89.301c0,0,18.324,100.845,3.46,160.301c-4,16-19.525,30.922-15.51,22.889
		c19.813-39.625,11.367-111.853,8.032-128.528c0,0-53.003,58.449-100.411,80.33C447.903,448.796,427.821,432.73,331.425,513.06"/>
	<path clip-path="url(#SVGID_2_)" d="M351.507,496.994c5.406-5.753,11.397-10.921,17.619-15.764c1.563-1.202,3.131-2.4,4.724-3.565
		l4.825-3.428c1.6-1.157,3.291-2.177,4.933-3.273l2.483-1.614l2.52-1.554c3.373-2.056,6.824-3.98,10.289-5.876
		c1.74-0.933,3.529-1.778,5.291-2.67l2.652-1.317c0.892-0.425,1.808-0.801,2.71-1.204c1.813-0.785,3.612-1.597,5.433-2.36
		l5.547-2.085l2.784-0.998c0.943-0.294,1.884-0.595,2.833-0.869c1.893-0.564,3.784-1.118,5.688-1.621
		c-1.751,0.922-3.515,1.791-5.277,2.652l-2.647,1.27l-2.602,1.369l-5.222,2.661c-1.708,0.951-3.438,1.852-5.152,2.779
		c-6.837,3.75-13.628,7.566-20.245,11.683l-2.512,1.493l-2.476,1.555l-4.94,3.126l-4.927,3.157
		c-1.614,1.095-3.253,2.156-4.896,3.213C364.433,488.08,357.986,492.502,351.507,496.994"/>
	<path clip-path="url(#SVGID_2_)" d="M309.334,499.002c-6.427-5.617-13.18-10.711-20.128-15.5
		c-3.486-2.374-7.008-4.686-10.595-6.889c-1.82-1.058-3.609-2.166-5.414-3.246c-1.819-1.055-3.687-2.027-5.527-3.045
		c-7.39-4.008-14.974-7.688-22.794-10.843c-3.87-1.693-7.853-3.083-11.828-4.556c-1.964-0.818-4.005-1.379-6.019-2.056
		c-2.018-0.664-4.04-1.337-6.058-2.063c2.112,0.29,4.219,0.635,6.33,0.988c2.109,0.36,4.231,0.698,6.299,1.246l6.23,1.588
		l1.558,0.408l1.525,0.506l3.053,1.014c2.027,0.702,4.107,1.281,6.073,2.146l5.966,2.439c1.006,0.382,1.969,0.859,2.933,1.333
		l2.899,1.409c1.936,0.935,3.876,1.862,5.743,2.93c1.865,1.067,3.757,2.088,5.6,3.193c1.82,1.144,3.656,2.259,5.461,3.425
		c3.542,2.431,7.088,4.86,10.416,7.576C297.764,486.342,304.095,492.229,309.334,499.002"/>
	<path clip-path="url(#SVGID_2_)" d="M594.505,488.969c-4.03,3.991-8.312,7.725-12.687,11.338
		c-4.375,3.613-8.897,7.051-13.521,10.346c-9.248,6.589-18.931,12.584-29.005,17.856c-20.109,10.563-42.018,18.096-64.718,20.745
		c-5.668,0.648-11.377,1.014-17.086,1.017c-5.694-0.004-11.389-0.104-17.065-0.401c-11.362-0.514-22.676-1.569-33.973-2.614
		c-11.297-1.061-22.578-2.199-33.861-3.124c-11.284-0.918-22.567-1.605-33.824-1.431c-11.275,0.219-22.563,1.132-33.836,2.182
		c-11.277,1.06-22.546,2.308-33.838,3.451c-11.292,1.126-22.605,2.225-33.979,2.726c-5.687,0.236-11.389,0.336-17.1,0.133
		c-2.855-0.094-5.712-0.295-8.563-0.599c-2.862-0.331-5.667-0.763-8.478-1.251c-11.233-1.942-22.313-4.874-32.942-9.013
		c-10.638-4.101-20.817-9.421-30.171-15.929c-9.36-6.494-17.905-14.153-25.308-22.788c-3.694-4.32-7.124-8.871-10.179-13.66
		c-3.039-4.793-5.817-9.776-7.912-15.05c2.212,5.224,5.097,10.132,8.233,14.84c3.161,4.697,6.625,9.186,10.38,13.416
		c7.506,8.463,16.117,15.92,25.498,22.198c9.391,6.267,19.505,11.426,30.068,15.38c10.554,3.985,21.541,6.771,32.672,8.579
		c11.103,2.034,22.398,1.862,33.682,1.271c11.282-0.619,22.557-1.707,33.826-2.896c11.27-1.188,22.54-2.485,33.842-3.596
		c11.302-1.101,22.638-2.067,34.044-2.338c11.429-0.279,22.815,0.537,34.126,1.513c11.317,0.991,22.599,2.193,33.879,3.316
		c11.277,1.144,22.56,2.143,33.846,2.878c5.645,0.393,11.291,0.586,16.937,0.687c5.633,0.058,11.263-0.254,16.866-0.839
		c22.453-2.377,44.205-9.719,64.395-19.854c10.104-5.088,19.845-10.909,29.171-17.337c4.666-3.211,9.219-6.586,13.672-10.09
		C586.039,496.513,590.393,492.875,594.505,488.969"/>
	<path clip-path="url(#SVGID_2_)" d="M478.027,569.291c7.305-0.315,14.627,0.969,21.692,2.889
		c7.084,1.939,13.918,4.733,20.466,8.063c1.612,0.879,3.195,1.81,4.794,2.712c0.793,0.463,1.605,0.893,2.381,1.382l2.302,1.509
		c1.519,1.03,3.063,2.02,4.557,3.081c1.465,1.103,2.912,2.226,4.353,3.356l2.163,1.688l2.051,1.826l4.059,3.685
		c0.683,0.604,1.308,1.273,1.935,1.938l1.878,1.993c1.247,1.332,2.474,2.679,3.685,4.034c-1.435-1.131-2.854-2.271-4.252-3.426
		c-1.423-1.127-2.735-2.373-4.212-3.428l-4.327-3.268l-2.145-1.646l-2.234-1.523c-1.492-1.01-2.976-2.028-4.443-3.067
		c-1.505-0.983-3.058-1.894-4.582-2.843l-2.281-1.432c-0.766-0.47-1.566-0.878-2.347-1.32l-4.718-2.594l-4.819-2.396
		c-1.587-0.844-3.283-1.44-4.908-2.203c-0.822-0.357-1.632-0.75-2.466-1.079l-2.513-0.966l-2.513-0.972l-2.547-0.878
		C492.228,572.112,485.248,570.217,478.027,569.291"/>
	<path clip-path="url(#SVGID_2_)" d="M199.808,579.333c-5.233,2.771-10.374,5.606-15.433,8.564
		c-2.511,1.508-5.033,2.987-7.484,4.577c-2.468,1.559-4.914,3.15-7.277,4.853c-2.396,1.654-4.74,3.383-6.999,5.208
		c-2.288,1.792-4.489,3.692-6.615,5.668c-4.25,3.964-8.105,8.335-11.342,13.303c2.123-5.55,5.622-10.569,9.679-14.951
		c4.051-4.419,8.691-8.243,13.556-11.684c4.895-3.407,10.045-6.416,15.378-9.028C188.603,583.238,194.101,580.955,199.808,579.333"
		/>
	<path clip-path="url(#SVGID_2_)" d="M353.516,611.464c3.02,20.868,4.406,41.987,4.143,63.11c-0.12,10.563-0.863,21.13-2.321,31.617
		c-0.775,5.252-1.655,10.43-2.47,15.627c-0.439,2.592-0.787,5.199-1.136,7.808l-1.066,7.819c-2.753,20.87-4.433,41.875-5.776,62.894
		c-0.638,10.513-1.185,21.034-1.544,31.564c-0.428,10.527-0.694,21.063-0.839,31.603c-0.305-10.539-0.231-21.084-0.131-31.628
		c0.154-10.544,0.537-21.084,0.99-31.621c0.266-5.268,0.492-10.537,0.888-15.798l0.544-7.893l0.642-7.887
		c0.39-5.262,0.972-10.506,1.46-15.76c0.545-5.248,1.173-10.488,1.789-15.729l1.103-7.841c0.364-2.613,0.728-5.228,1.184-7.828
		c0.848-5.212,1.762-10.422,2.556-15.591c1.547-10.381,2.215-20.886,2.579-31.393c0.333-10.511,0.197-21.043-0.275-31.562
		C355.418,632.456,354.634,621.945,353.516,611.464"/>
	<path clip-path="url(#SVGID_2_)" fill="#0093B5" d="M602.539,499.002c0,0,30.123,218.898-34.141,303.245
		c0,0,27.234-52.112,16.066-152.627c-4.017-36.148-20.083-44.181-44.182-68.28c-26.793-26.793-147.959-24.751-160.66-12.05
		c-8.032,8.033-16.065,20.083-10.041,46.19c9.429,40.859-14.058,94.388-14.058,94.388s12.05-52.215-8.033-108.446
		c-14.118-39.53-31.313-39.663-61.867-41.271c-26.315-1.386-63.926,2.669-114.858,21.189
		C82.403,613.472,106.5,782.166,106.5,782.166s-24.098-68.281-20.082-104.43c2.843-25.584,12.05-108.445,8.033-136.561
		l-8.033-60.247c0,0,32.132,52.214,84.347,60.247c10.179,1.566,41.259,15.323,100.41,8.033c22.079-2.722,56.233-4.017,80.332-4.017
		c47.274,0,92.577,12.739,128.528,8.033C547.648,544.374,602.539,499.002,602.539,499.002"/>
	<g clip-path="url(#SVGID_2_)">
		<path fill="none" stroke="#000000" stroke-width="15" stroke-miterlimit="10" d="M307.506,500.506h114c2.762,0,5,2.238,5,5v50
			c0,35.898-29.102,65-65,65h-114c-2.761,0-5-2.238-5-5v-50C242.506,529.608,271.608,500.506,307.506,500.506z"/>
		<path fill="none" stroke="#E8C513" stroke-width="11" stroke-miterlimit="10" d="M307.506,500.506h114c2.762,0,5,2.238,5,5v50
			c0,35.898-29.102,65-65,65h-114c-2.761,0-5-2.238-5-5v-50C242.506,529.608,271.608,500.506,307.506,500.506z"/>
	</g>
	<polygon clip-path="url(#SVGID_2_)" fill="#E8C513" points="70.506,642.506 192.856,744.008 172.773,675.728 341.466,760.075 
		510.159,679.745 478.028,731.958 617.506,653.506 617.506,691.506 437.862,784.173 465.977,719.91 341.466,804.255 208.922,719.91 
		224.987,780.157 66.506,690.506 	"/>
	<polygon clip-path="url(#SVGID_2_)" fill="none" stroke="#000000" stroke-width="1.5" stroke-miterlimit="10" points="
		70.506,642.506 192.856,744.008 172.773,675.728 341.466,760.075 510.159,679.745 478.028,731.958 617.506,653.506 
		617.506,691.506 437.862,784.173 465.977,719.91 341.466,804.255 208.922,719.91 224.987,780.157 66.506,690.506 	"/>
	<polygon clip-path="url(#SVGID_2_)" fill="#FFD97B" points="247.614,713.884 247.614,744.038 270.559,758.066 271.006,726.006 	"/>
	<path clip-path="url(#SVGID_2_)" fill="#FFE6AE" d="M255.93,718.399l-2.923,28.607c0,0,12.247,7.688,11.693,7.865
		c-0.555,0.178,1.307-31.865,1.307-31.865L255.93,718.399z"/>
	<polygon clip-path="url(#SVGID_2_)" fill="#FFD97B" points="408.006,729.006 411.006,756.006 392.006,769.006 387.006,739.006 	"/>
	<polygon clip-path="url(#SVGID_2_)" fill="#FFE6AE" points="392.006,737.006 402.006,732.006 406.006,759.006 397.006,766.006 	"/>
	<polygon clip-path="url(#SVGID_2_)" fill="#E8C513" points="622.281,532.489 633.848,542.234 648.719,507.036 636.67,511.051 
		660.769,486.953 648.719,486.953 664.786,470.887 630.006,490.007 	"/>
	<polygon clip-path="url(#SVGID_2_)" fill="none" stroke="#000000" stroke-width="1.5" stroke-miterlimit="10" points="
		622.281,532.489 633.848,542.234 648.719,507.036 636.67,511.051 660.769,486.953 648.719,486.953 664.786,470.887 
		630.006,490.007 	"/>
	<polygon clip-path="url(#SVGID_2_)" fill="#E8C513" points="67.374,535.022 55.522,545.006 40.285,508.942 52.63,513.057 
		27.938,488.365 40.285,488.365 23.823,471.903 60.006,493.006 	"/>
	<polygon clip-path="url(#SVGID_2_)" fill="none" stroke="#000000" stroke-width="1.5" stroke-miterlimit="10" points="
		67.374,535.022 55.522,545.006 40.285,508.942 52.63,513.057 27.938,488.365 40.285,488.365 23.823,471.903 60.006,493.006 	"/>
	<path clip-path="url(#SVGID_2_)" fill="#E8C513" d="M399.713,560.246c0,36.047-29.222,65.268-65.268,65.268
		c-36.046,0-65.269-29.221-65.269-65.268s29.222-65.268,65.269-65.268C370.492,494.978,399.713,524.199,399.713,560.246"/>
	<path clip-path="url(#SVGID_2_)" fill="#FFFFFF" d="M384.309,560.421c0,27.636-22.403,50.038-50.039,50.038
		c-27.636,0-50.039-22.402-50.039-50.038s22.403-50.039,50.039-50.039C361.906,510.382,384.309,532.786,384.309,560.421"/>
	
		<circle clip-path="url(#SVGID_2_)" fill="none" stroke="#F98935" stroke-width="2" stroke-miterlimit="10" cx="334.27" cy="560.421" r="50.039"/>
	<polygon clip-path="url(#SVGID_2_)" fill="#F4D347" points="44.34,941.438 41.007,974.006 61.007,974.006 62.007,934.006 	"/>
	<polygon clip-path="url(#SVGID_2_)" fill="#FFEB88" points="47.673,939.768 43.673,974.006 58.34,974.006 59.006,936.006 	"/>
	<polygon clip-path="url(#SVGID_2_)" fill="#FFE6AE" points="49.673,938.932 47.006,974.006 55.006,974.006 56.006,937.006 	"/>
	<polygon clip-path="url(#SVGID_2_)" fill="#F4D347" points="636.589,941.316 640.011,972.468 618.875,972.4 619.002,933.274 	"/>
	<polygon clip-path="url(#SVGID_2_)" fill="#FFEB88" points="633.072,939.708 637.193,972.459 621.694,972.409 621.815,934.88 	"/>
	<polygon clip-path="url(#SVGID_2_)" fill="#FFE6AE" points="630.961,938.902 633.67,972.448 625.216,972.42 625.333,936.489 	"/>
	
		<circle clip-path="url(#SVGID_2_)" fill="none" stroke="#E8C513" stroke-width="11" stroke-miterlimit="10" cx="334.506" cy="560.506" r="60"/>
	
		<circle clip-path="url(#SVGID_2_)" fill="none" stroke="#FFEB78" stroke-width="11" stroke-miterlimit="10" cx="334.506" cy="560.506" r="44"/>
	<path clip-path="url(#SVGID_2_)" fill="#FFF9DC" d="M334.506,521.506c21.539,0,39,17.461,39,39s-17.461,39-39,39s-39-17.461-39-39
		S312.967,521.506,334.506,521.506"/>
	
		<circle clip-path="url(#SVGID_2_)" fill="none" stroke="#FFEF8F" stroke-width="11" stroke-miterlimit="10" cx="334.506" cy="560.506" r="39"/>
	
		<circle clip-path="url(#SVGID_2_)" fill="none" stroke="#FFF294" stroke-width="11" stroke-miterlimit="10" cx="335.006" cy="561.006" r="14.5"/>
	<path clip-path="url(#SVGID_2_)" fill="#FFE6AE" d="M339.006,496.007l-7-0.001c0,0-0.652,13.021-1,13c-0.348-0.02,8,0,8,0V496.007z
		"/>
	<g clip-path="url(#SVGID_2_)">
		<circle fill="none" stroke="#000000" stroke-width="6" stroke-miterlimit="10" cx="334.445" cy="560.246" r="65.268"/>
		<circle fill="none" stroke="#F98935" stroke-width="2" stroke-miterlimit="10" cx="334.445" cy="560.246" r="65.268"/>
	</g>
	<polygon clip-path="url(#SVGID_2_)" fill="#FFEC40" points="392.648,477.936 308.301,558.266 336.417,558.266 272.153,642.613 
		380.598,542.2 348.466,542.2 	"/>
	<polygon clip-path="url(#SVGID_2_)" fill="none" stroke="#000000" stroke-width="1.75" stroke-miterlimit="10" points="
		392.648,477.936 308.301,558.266 336.417,558.266 272.153,642.613 380.598,542.2 348.466,542.2 	"/>
</g>
</svg>
